<?xml version="1.0" encoding="utf-8"?>
<!-- Generator: Adobe Illustrator 24.1.0, SVG Export Plug-In . SVG Version: 6.00 Build 0)  -->
<svg version="1.1" id="Layer_1" xmlns="http://www.w3.org/2000/svg" xmlns:xlink="http://www.w3.org/1999/xlink" x="0px" y="0px"
	 viewBox="0 0 446 102" style="enable-background:new 0 0 446 102;" xml:space="preserve">
<style type="text/css">
	.st0{opacity:0.3;}
	.st1{clip-path:url(#SVGID_2_);}
	.st2{clip-path:url(#SVGID_8_);}
	.st3{fill:#00C8D7;}
	.st4{fill:#FFFFFF;}
	.st5{fill:url(#SVGID_11_);}
	.st6{fill:#00ADC5;}
	.st7{opacity:0.05;}
	.st8{fill:none;stroke:#06C8D7;stroke-width:3;stroke-miterlimit:10;}
	.st9{fill:url(#SVGID_16_);}
	.st10{fill:none;stroke:#FFFFFF;stroke-width:3;stroke-miterlimit:10;}
	.st11{fill:#00CCDB;}
	.st12{fill:#A9A9BA;}
	.st13{fill:#4B4A50;}
	.st14{fill:#00B0C8;}
</style>
<g>
	<g>
		<g>
			<g>
				<g>
					<g>
						<g>
							<g>
								<g>
									<polygon class="st11" points="129.46,2 93.13,100 65.45,100 101.78,2 									"/>
								</g>
							</g>
						</g>
						<g>
							<g>
								<g>
									<g>
										<polygon class="st12" points="72.21,44 51.45,100 23.76,100 44.53,44 										"/>
									</g>
								</g>
							</g>
							<g>
								<polygon class="st13" points="30.68,44 3,44 23.76,100 51.45,100 								"/>
							</g>
							<g>
								<g>
									<g>
										<g>
											<g>
												<polygon class="st14" points="44.53,44 65.29,100 92.97,100 72.21,44 												"/>
											</g>
										</g>
									</g>
								</g>
							</g>
						</g>
					</g>
				</g>
			</g>
		</g>
		<g>
			<path class="st13" d="M217.92,44l-13.23,56h-16.6l-8.85-37.47L170.3,100h-16.6l-13.23-56h14.57l7.13,40.55L171.87,44h14.64
				l9.71,40.55l7.2-40.55H217.92z"/>
			<path class="st13" d="M237.68,44v56h-13.39V44H237.68z"/>
			<path class="st13" d="M293.23,100h-13.39l-22.4-34.38V100h-13.39V44h13.39l22.4,34.69V44h13.39V100z"/>
			<path class="st13" d="M342.98,44v10.77h-15.04V100h-13.47V54.77h-14.88V44H342.98z"/>
			<path class="st13" d="M362.74,54.77V66.5h18.72v10.22h-18.72v12.44h21.07V100h-34.46V44h34.46v10.77H362.74z"/>
			<path class="st13" d="M434.08,49.06c4.41,3.37,7.15,7.93,8.23,13.69h-13.92c-0.92-1.97-2.33-3.54-4.23-4.71
				c-1.9-1.17-4.18-1.75-6.84-1.75c-4.15,0-7.49,1.41-10,4.24c-2.51,2.83-3.77,6.65-3.77,11.47c0,5.24,1.32,9.26,3.96,12.06
				c2.64,2.8,6.39,4.2,11.27,4.2c3.13,0,5.87-0.87,8.23-2.61c2.36-1.74,4.02-4.21,5-7.43h-16.61v-9.57H443V81.8
				c-1.03,3.22-2.67,6.2-4.92,8.94c-2.26,2.75-5.14,4.98-8.65,6.69c-3.51,1.71-7.52,2.57-12.03,2.57c-5.49,0-10.28-1.18-14.38-3.54
				c-4.1-2.36-7.27-5.66-9.5-9.92c-2.23-4.25-3.35-9.1-3.35-14.54c0-5.44,1.12-10.29,3.35-14.54c2.23-4.25,5.38-7.56,9.46-9.92
				c4.08-2.36,8.83-3.54,14.26-3.54C424.06,44,429.67,45.69,434.08,49.06z"/>
		</g>
	</g>
</g>
</svg>
